<?xml version="1.0" encoding="UTF-8" standalone="no"?>
<!-- Created with Inkscape (http://www.inkscape.org/) -->

<svg
   xmlns:svg="http://www.w3.org/2000/svg"
   xmlns="http://www.w3.org/2000/svg"
   version="1.1"
   width="743.75"
   height="1056.25"
   id="svg2"
   xml:space="preserve"><defs
     id="defs6"><clipPath
       id="clipPath20"><path
         d="M 0,845 0,0 595,0 595,845 0,845 z"
         id="path22" /></clipPath></defs><g
     transform="matrix(1.25,0,0,-1.25,0,1056.25)"
     id="g12"><g
       id="g14" /><g
       id="g16"><g
         clip-path="url(#clipPath20)"
         id="g18"><g
           id="g24"><path
             d="m 20,422.5 54,0"
             id="path26"
             style="fill:none;stroke:#000000;stroke-width:2;stroke-linecap:square;stroke-linejoin:miter;stroke-miterlimit:10;stroke-opacity:1;stroke-dasharray:none" /><path
             d="m 74,422.5 c 0,0 0,394.57 486,394.57"
             id="path28"
             style="fill:none;stroke:#000000;stroke-width:2;stroke-linecap:square;stroke-linejoin:miter;stroke-miterlimit:10;stroke-opacity:1;stroke-dasharray:none" /><path
             d="m 74,422.5 c 0,0 0,-17.93 54,-17.93"
             id="path30"
             style="fill:none;stroke:#000000;stroke-width:2;stroke-linecap:square;stroke-linejoin:miter;stroke-miterlimit:10;stroke-opacity:1;stroke-dasharray:none" /><text
             transform="matrix(1,0,0,-1,79,418)"
             id="text32"><tspan
               x="0 5.5346699 14.17734 22.820009"
               y="0"
               id="tspan34"
               style="font-size:14px;font-variant:normal;font-weight:bold;writing-mode:lr-tb;fill:#000000;fill-opacity:1;fill-rule:nonzero;stroke:none;font-family:Helvetica;-inkscape-font-specification:Helvetica-Bold">root</tspan></text>
<text
             transform="matrix(1,0,0,-1,565,812)"
             id="text36"><tspan
               x="0 8.302"
               y="0"
               id="tspan38"
               style="font-size:14px;font-variant:normal;font-weight:bold;writing-mode:lr-tb;fill:#000000;fill-opacity:1;fill-rule:nonzero;stroke:none;font-family:Helvetica;-inkscape-font-specification:Helvetica-Bold">L0</tspan></text>
<path
             d="m 128,404.57 c 0,0 0,376.63 432,376.63"
             id="path40"
             style="fill:none;stroke:#000000;stroke-width:2;stroke-linecap:square;stroke-linejoin:miter;stroke-miterlimit:10;stroke-opacity:1;stroke-dasharray:none" /><path
             d="m 128,404.57 c 0,0 0,-17.94 54,-17.94"
             id="path42"
             style="fill:none;stroke:#000000;stroke-width:2;stroke-linecap:square;stroke-linejoin:miter;stroke-miterlimit:10;stroke-opacity:1;stroke-dasharray:none" /><text
             transform="matrix(1,0,0,-1,133,400)"
             id="text44"><tspan
               x="0 8.8153296 16.860661 21.783991"
               y="0"
               id="tspan46"
               style="font-size:14px;font-variant:normal;font-weight:bold;writing-mode:lr-tb;fill:#000000;fill-opacity:1;fill-rule:nonzero;stroke:none;font-family:Helvetica;-inkscape-font-specification:Helvetica-Bold">L1-6</tspan></text>
<text
             transform="matrix(1,0,0,-1,565,777)"
             id="text48"><tspan
               x="0 8.302"
               y="0"
               id="tspan50"
               style="font-size:14px;font-variant:normal;font-weight:bold;writing-mode:lr-tb;fill:#000000;fill-opacity:1;fill-rule:nonzero;stroke:none;font-family:Helvetica;-inkscape-font-specification:Helvetica-Bold">L1</tspan></text>
<path
             d="m 182,386.63 c 0,0 0,358.7 378,358.7"
             id="path52"
             style="fill:none;stroke:#000000;stroke-width:2;stroke-linecap:square;stroke-linejoin:miter;stroke-miterlimit:10;stroke-opacity:1;stroke-dasharray:none" /><path
             d="m 182,386.63 c 0,0 0,-17.93 54,-17.93"
             id="path54"
             style="fill:none;stroke:#000000;stroke-width:2;stroke-linecap:square;stroke-linejoin:miter;stroke-miterlimit:10;stroke-opacity:1;stroke-dasharray:none" /><text
             transform="matrix(1,0,0,-1,187,382)"
             id="text56"><tspan
               x="0 8.8153296 16.860661 21.783991"
               y="0"
               id="tspan58"
               style="font-size:14px;font-variant:normal;font-weight:bold;writing-mode:lr-tb;fill:#000000;fill-opacity:1;fill-rule:nonzero;stroke:none;font-family:Helvetica;-inkscape-font-specification:Helvetica-Bold">L2-6</tspan></text>
<text
             transform="matrix(1,0,0,-1,565,741)"
             id="text60"><tspan
               x="0 8.302"
               y="0"
               id="tspan62"
               style="font-size:14px;font-variant:normal;font-weight:bold;writing-mode:lr-tb;fill:#000000;fill-opacity:1;fill-rule:nonzero;stroke:none;font-family:Helvetica;-inkscape-font-specification:Helvetica-Bold">L5</tspan></text>
<path
             d="m 236,368.7 c 0,0 0,251.08 216,251.08"
             id="path64"
             style="fill:none;stroke:#000000;stroke-width:2;stroke-linecap:square;stroke-linejoin:miter;stroke-miterlimit:10;stroke-opacity:1;stroke-dasharray:none" /><path
             d="m 236,368.7 c 0,0 0,-107.61 54,-107.61"
             id="path66"
             style="fill:none;stroke:#000000;stroke-width:2;stroke-linecap:square;stroke-linejoin:miter;stroke-miterlimit:10;stroke-opacity:1;stroke-dasharray:none" /><text
             transform="matrix(1,0,0,-1,241,364)"
             id="text68"><tspan
               x="0 8.302"
               y="0"
               id="tspan70"
               style="font-size:14px;font-variant:normal;font-weight:bold;writing-mode:lr-tb;fill:#000000;fill-opacity:1;fill-rule:nonzero;stroke:none;font-family:Helvetica;-inkscape-font-specification:Helvetica-Bold">L3</tspan></text>
<path
             d="m 452,619.78 c 0,0 0,89.68 108,89.68"
             id="path72"
             style="fill:none;stroke:#000000;stroke-width:2;stroke-linecap:square;stroke-linejoin:miter;stroke-miterlimit:10;stroke-opacity:1;stroke-dasharray:none" /><path
             d="m 452,619.78 c 0,0 0,53.81 108,53.81"
             id="path74"
             style="fill:none;stroke:#000000;stroke-width:2;stroke-linecap:square;stroke-linejoin:miter;stroke-miterlimit:10;stroke-opacity:1;stroke-dasharray:none" /><path
             d="m 452,619.78 c 0,0 0,17.94 54,17.94"
             id="path76"
             style="fill:none;stroke:#000000;stroke-width:2;stroke-linecap:square;stroke-linejoin:miter;stroke-miterlimit:10;stroke-opacity:1;stroke-dasharray:none" /><path
             d="m 452,619.78 c 0,0 0,-17.93 54,-17.93"
             id="path78"
             style="fill:none;stroke:#000000;stroke-width:2;stroke-linecap:square;stroke-linejoin:miter;stroke-miterlimit:10;stroke-opacity:1;stroke-dasharray:none" /><path
             d="m 452,619.78 c 0,0 0,-53.8 54,-53.8"
             id="path80"
             style="fill:none;stroke:#000000;stroke-width:2;stroke-linecap:square;stroke-linejoin:miter;stroke-miterlimit:10;stroke-opacity:1;stroke-dasharray:none" /><path
             d="m 452,619.78 c 0,0 0,-89.67 54,-89.67"
             id="path82"
             style="fill:none;stroke:#000000;stroke-width:2;stroke-linecap:square;stroke-linejoin:miter;stroke-miterlimit:10;stroke-opacity:1;stroke-dasharray:none" /><text
             transform="matrix(1,0,0,-1,457,615)"
             id="text84"><tspan
               x="0"
               y="0"
               id="tspan86"
               style="font-size:14px;font-variant:normal;font-weight:bold;writing-mode:lr-tb;fill:#000000;fill-opacity:1;fill-rule:nonzero;stroke:none;font-family:Helvetica;-inkscape-font-specification:Helvetica-Bold">M</tspan></text>
<text
             transform="matrix(1,0,0,-1,565,705)"
             id="text88"><tspan
               x="0 12.702"
               y="0"
               id="tspan90"
               style="font-size:14px;font-variant:normal;font-weight:bold;writing-mode:lr-tb;fill:#000000;fill-opacity:1;fill-rule:nonzero;stroke:none;font-family:Helvetica;-inkscape-font-specification:Helvetica-Bold">M2</tspan></text>
<text
             transform="matrix(1,0,0,-1,565,669)"
             id="text92"><tspan
               x="0 12.702"
               y="0"
               id="tspan94"
               style="font-size:14px;font-variant:normal;font-weight:bold;writing-mode:lr-tb;fill:#000000;fill-opacity:1;fill-rule:nonzero;stroke:none;font-family:Helvetica;-inkscape-font-specification:Helvetica-Bold">M3</tspan></text>
<path
             d="m 506,637.72 c 0,0 0,0 54,0"
             id="path96"
             style="fill:none;stroke:#000000;stroke-width:2;stroke-linecap:square;stroke-linejoin:miter;stroke-miterlimit:10;stroke-opacity:1;stroke-dasharray:none" /><text
             transform="matrix(1,0,0,-1,511,624)"
             id="text98"><tspan
               x="0 12.702"
               y="0"
               id="tspan100"
               style="font-size:14px;font-variant:normal;font-weight:bold;writing-mode:lr-tb;fill:#000000;fill-opacity:1;fill-rule:nonzero;stroke:none;font-family:Helvetica;-inkscape-font-specification:Helvetica-Bold">M8</tspan></text>
<text
             transform="matrix(1,0,0,-1,565,633)"
             id="text102"><tspan
               x="0"
               y="0"
               id="tspan104"
               style="font-size:14px;font-variant:normal;font-weight:bold;writing-mode:lr-tb;fill:#000000;fill-opacity:1;fill-rule:nonzero;stroke:none;font-family:Helvetica;-inkscape-font-specification:Helvetica-Bold">C</tspan></text>
<path
             d="m 506,601.85 c 0,0 0,0 54,0"
             id="path106"
             style="fill:none;stroke:#000000;stroke-width:2;stroke-linecap:square;stroke-linejoin:miter;stroke-miterlimit:10;stroke-opacity:1;stroke-dasharray:none" /><text
             transform="matrix(1,0,0,-1,511,588)"
             id="text108"><tspan
               x="0 12.702"
               y="0"
               id="tspan110"
               style="font-size:14px;font-variant:normal;font-weight:bold;writing-mode:lr-tb;fill:#000000;fill-opacity:1;fill-rule:nonzero;stroke:none;font-family:Helvetica;-inkscape-font-specification:Helvetica-Bold">M9</tspan></text>
<text
             transform="matrix(1,0,0,-1,565,597)"
             id="text112"><tspan
               x="0"
               y="0"
               id="tspan114"
               style="font-size:14px;font-variant:normal;font-weight:bold;writing-mode:lr-tb;fill:#000000;fill-opacity:1;fill-rule:nonzero;stroke:none;font-family:Helvetica;-inkscape-font-specification:Helvetica-Bold">E</tspan></text>
<path
             d="m 506,565.98 c 0,0 0,0 54,0"
             id="path116"
             style="fill:none;stroke:#000000;stroke-width:2;stroke-linecap:square;stroke-linejoin:miter;stroke-miterlimit:10;stroke-opacity:1;stroke-dasharray:none" /><text
             transform="matrix(1,0,0,-1,511,552)"
             id="text118"><tspan
               x="0 12.18 20.482"
               y="0"
               id="tspan120"
               style="font-size:14px;font-variant:normal;font-weight:bold;writing-mode:lr-tb;fill:#000000;fill-opacity:1;fill-rule:nonzero;stroke:none;font-family:Helvetica;-inkscape-font-specification:Helvetica-Bold">M12</tspan></text>
<text
             transform="matrix(1,0,0,-1,565,561)"
             id="text122"><tspan
               x="0"
               y="0"
               id="tspan124"
               style="font-size:14px;font-variant:normal;font-weight:bold;writing-mode:lr-tb;fill:#000000;fill-opacity:1;fill-rule:nonzero;stroke:none;font-family:Helvetica;-inkscape-font-specification:Helvetica-Bold">G</tspan></text>
<path
             d="m 506,530.11 c 0,0 0,0 54,0"
             id="path126"
             style="fill:none;stroke:#000000;stroke-width:2;stroke-linecap:square;stroke-linejoin:miter;stroke-miterlimit:10;stroke-opacity:1;stroke-dasharray:none" /><text
             transform="matrix(1,0,0,-1,511,516)"
             id="text128"><tspan
               x="0 12.1275 20.377001 28.626499 32.424"
               y="0"
               id="tspan130"
               style="font-size:14px;font-variant:normal;font-weight:bold;writing-mode:lr-tb;fill:#000000;fill-opacity:1;fill-rule:nonzero;stroke:none;font-family:Helvetica;-inkscape-font-specification:Helvetica-Bold">M80'D</tspan></text>
<text
             transform="matrix(1,0,0,-1,565,525)"
             id="text132"><tspan
               x="0"
               y="0"
               id="tspan134"
               style="font-size:14px;font-variant:normal;font-weight:bold;writing-mode:lr-tb;fill:#000000;fill-opacity:1;fill-rule:nonzero;stroke:none;font-family:Helvetica;-inkscape-font-specification:Helvetica-Bold">D</tspan></text>
<path
             d="m 290,261.09 c 0,0 0,233.15 216,233.15"
             id="path136"
             style="fill:none;stroke:#000000;stroke-width:2;stroke-linecap:square;stroke-linejoin:miter;stroke-miterlimit:10;stroke-opacity:1;stroke-dasharray:none" /><path
             d="m 290,261.09 c 0,0 0,197.28 216,197.28"
             id="path138"
             style="fill:none;stroke:#000000;stroke-width:2;stroke-linecap:square;stroke-linejoin:miter;stroke-miterlimit:10;stroke-opacity:1;stroke-dasharray:none" /><path
             d="m 290,261.09 c 0,0 0,161.41 270,161.41"
             id="path140"
             style="fill:none;stroke:#000000;stroke-width:2;stroke-linecap:square;stroke-linejoin:miter;stroke-miterlimit:10;stroke-opacity:1;stroke-dasharray:none" /><path
             d="m 290,261.09 c 0,0 0,125.54 270,125.54"
             id="path142"
             style="fill:none;stroke:#000000;stroke-width:2;stroke-linecap:square;stroke-linejoin:miter;stroke-miterlimit:10;stroke-opacity:1;stroke-dasharray:none" /><path
             d="m 290,261.09 c 0,0 0,89.67 270,89.67"
             id="path144"
             style="fill:none;stroke:#000000;stroke-width:2;stroke-linecap:square;stroke-linejoin:miter;stroke-miterlimit:10;stroke-opacity:1;stroke-dasharray:none" /><path
             d="m 290,261.09 c 0,0 0,-89.68 54,-89.68"
             id="path146"
             style="fill:none;stroke:#000000;stroke-width:2;stroke-linecap:square;stroke-linejoin:miter;stroke-miterlimit:10;stroke-opacity:1;stroke-dasharray:none" /><text
             transform="matrix(1,0,0,-1,295,256)"
             id="text148"><tspan
               x="0"
               y="0"
               id="tspan150"
               style="font-size:14px;font-variant:normal;font-weight:bold;writing-mode:lr-tb;fill:#000000;fill-opacity:1;fill-rule:nonzero;stroke:none;font-family:Helvetica;-inkscape-font-specification:Helvetica-Bold">N</tspan></text>
<path
             d="m 506,494.24 c 0,0 0,0 54,0"
             id="path152"
             style="fill:none;stroke:#000000;stroke-width:2;stroke-linecap:square;stroke-linejoin:miter;stroke-miterlimit:10;stroke-opacity:1;stroke-dasharray:none" /><text
             transform="matrix(1,0,0,-1,511,480)"
             id="text154"><tspan
               x="0 10.374"
               y="0"
               id="tspan156"
               style="font-size:14px;font-variant:normal;font-weight:bold;writing-mode:lr-tb;fill:#000000;fill-opacity:1;fill-rule:nonzero;stroke:none;font-family:Helvetica;-inkscape-font-specification:Helvetica-Bold">N1</tspan></text>
<text
             transform="matrix(1,0,0,-1,565,490)"
             id="text158"><tspan
               x="0"
               y="0"
               id="tspan160"
               style="font-size:14px;font-variant:normal;font-weight:bold;writing-mode:lr-tb;fill:#000000;fill-opacity:1;fill-rule:nonzero;stroke:none;font-family:Helvetica;-inkscape-font-specification:Helvetica-Bold">I</tspan></text>
<path
             d="m 506,458.37 c 0,0 0,0 54,0"
             id="path162"
             style="fill:none;stroke:#000000;stroke-width:2;stroke-linecap:square;stroke-linejoin:miter;stroke-miterlimit:10;stroke-opacity:1;stroke-dasharray:none" /><text
             transform="matrix(1,0,0,-1,511,444)"
             id="text164"><tspan
               x="0 10.374"
               y="0"
               id="tspan166"
               style="font-size:14px;font-variant:normal;font-weight:bold;writing-mode:lr-tb;fill:#000000;fill-opacity:1;fill-rule:nonzero;stroke:none;font-family:Helvetica;-inkscape-font-specification:Helvetica-Bold">N2</tspan></text>
<text
             transform="matrix(1,0,0,-1,565,454)"
             id="text168"><tspan
               x="0"
               y="0"
               id="tspan170"
               style="font-size:14px;font-variant:normal;font-weight:bold;writing-mode:lr-tb;fill:#000000;fill-opacity:1;fill-rule:nonzero;stroke:none;font-family:Helvetica;-inkscape-font-specification:Helvetica-Bold">W</tspan></text>
<text
             transform="matrix(1,0,0,-1,565,418)"
             id="text172"><tspan
               x="0 10.374"
               y="0"
               id="tspan174"
               style="font-size:14px;font-variant:normal;font-weight:bold;writing-mode:lr-tb;fill:#000000;fill-opacity:1;fill-rule:nonzero;stroke:none;font-family:Helvetica;-inkscape-font-specification:Helvetica-Bold">N8</tspan></text>
<text
             transform="matrix(1,0,0,-1,565,382)"
             id="text176"><tspan
               x="0"
               y="0"
               id="tspan178"
               style="font-size:14px;font-variant:normal;font-weight:bold;writing-mode:lr-tb;fill:#000000;fill-opacity:1;fill-rule:nonzero;stroke:none;font-family:Helvetica;-inkscape-font-specification:Helvetica-Bold">A</tspan></text>
<text
             transform="matrix(1,0,0,-1,565,346)"
             id="text180"><tspan
               x="0"
               y="0"
               id="tspan182"
               style="font-size:14px;font-variant:normal;font-weight:bold;writing-mode:lr-tb;fill:#000000;fill-opacity:1;fill-rule:nonzero;stroke:none;font-family:Helvetica;-inkscape-font-specification:Helvetica-Bold">X</tspan></text>
<path
             d="m 344,171.41 c 0,0 0,125.55 108,125.55"
             id="path184"
             style="fill:none;stroke:#000000;stroke-width:2;stroke-linecap:square;stroke-linejoin:miter;stroke-miterlimit:10;stroke-opacity:1;stroke-dasharray:none" /><path
             d="m 344,171.41 c 0,0 0,53.81 108,53.81"
             id="path186"
             style="fill:none;stroke:#000000;stroke-width:2;stroke-linecap:square;stroke-linejoin:miter;stroke-miterlimit:10;stroke-opacity:1;stroke-dasharray:none" /><path
             d="m 344,171.41 c 0,0 0,0 162,0"
             id="path188"
             style="fill:none;stroke:#000000;stroke-width:2;stroke-linecap:square;stroke-linejoin:miter;stroke-miterlimit:10;stroke-opacity:1;stroke-dasharray:none" /><path
             d="m 344,171.41 c 0,0 0,-89.67 54,-89.67"
             id="path190"
             style="fill:none;stroke:#000000;stroke-width:2;stroke-linecap:square;stroke-linejoin:miter;stroke-miterlimit:10;stroke-opacity:1;stroke-dasharray:none" /><text
             transform="matrix(1,0,0,-1,349,167)"
             id="text192"><tspan
               x="0"
               y="0"
               id="tspan194"
               style="font-size:14px;font-variant:normal;font-weight:bold;writing-mode:lr-tb;fill:#000000;fill-opacity:1;fill-rule:nonzero;stroke:none;font-family:Helvetica;-inkscape-font-specification:Helvetica-Bold">R</tspan></text>
<path
             d="m 452,296.96 c 0,0 0,0 54,0"
             id="path196"
             style="fill:none;stroke:#000000;stroke-width:2;stroke-linecap:square;stroke-linejoin:miter;stroke-miterlimit:10;stroke-opacity:1;stroke-dasharray:none" /><text
             transform="matrix(1,0,0,-1,457,283)"
             id="text198"><tspan
               x="0 10.108"
               y="0"
               id="tspan200"
               style="font-size:14px;font-variant:normal;font-weight:bold;writing-mode:lr-tb;fill:#000000;fill-opacity:1;fill-rule:nonzero;stroke:none;font-family:Helvetica;-inkscape-font-specification:Helvetica-Bold">R0</tspan></text>
<path
             d="m 506,296.96 c 0,0 0,17.93 54,17.93"
             id="path202"
             style="fill:none;stroke:#000000;stroke-width:2;stroke-linecap:square;stroke-linejoin:miter;stroke-miterlimit:10;stroke-opacity:1;stroke-dasharray:none" /><path
             d="m 506,296.96 c 0,0 0,-17.94 54,-17.94"
             id="path204"
             style="fill:none;stroke:#000000;stroke-width:2;stroke-linecap:square;stroke-linejoin:miter;stroke-miterlimit:10;stroke-opacity:1;stroke-dasharray:none" /><text
             transform="matrix(1,0,0,-1,511,292)"
             id="text206"><tspan
               x="0 9.8559999"
               y="0"
               id="tspan208"
               style="font-size:14px;font-variant:normal;font-weight:bold;writing-mode:lr-tb;fill:#000000;fill-opacity:1;fill-rule:nonzero;stroke:none;font-family:Helvetica;-inkscape-font-specification:Helvetica-Bold">HV</tspan></text>
<text
             transform="matrix(1,0,0,-1,565,310)"
             id="text210"><tspan
               x="0"
               y="0"
               id="tspan212"
               style="font-size:14px;font-variant:normal;font-weight:bold;writing-mode:lr-tb;fill:#000000;fill-opacity:1;fill-rule:nonzero;stroke:none;font-family:Helvetica;-inkscape-font-specification:Helvetica-Bold">V</tspan></text>
<text
             transform="matrix(1,0,0,-1,565,274)"
             id="text214"><tspan
               x="0"
               y="0"
               id="tspan216"
               style="font-size:14px;font-variant:normal;font-weight:bold;writing-mode:lr-tb;fill:#000000;fill-opacity:1;fill-rule:nonzero;stroke:none;font-family:Helvetica;-inkscape-font-specification:Helvetica-Bold">H</tspan></text>
<path
             d="m 452,225.22 c 0,0 0,0 54,0"
             id="path218"
             style="fill:none;stroke:#000000;stroke-width:2;stroke-linecap:square;stroke-linejoin:miter;stroke-miterlimit:10;stroke-opacity:1;stroke-dasharray:none" /><text
             transform="matrix(1,0,0,-1,457,211)"
             id="text220"><tspan
               x="0 10.108"
               y="0"
               id="tspan222"
               style="font-size:14px;font-variant:normal;font-weight:bold;writing-mode:lr-tb;fill:#000000;fill-opacity:1;fill-rule:nonzero;stroke:none;font-family:Helvetica;-inkscape-font-specification:Helvetica-Bold">R2</tspan></text>
<path
             d="m 506,225.22 c 0,0 0,17.93 54,17.93"
             id="path224"
             style="fill:none;stroke:#000000;stroke-width:2;stroke-linecap:square;stroke-linejoin:miter;stroke-miterlimit:10;stroke-opacity:1;stroke-dasharray:none" /><path
             d="m 506,225.22 c 0,0 0,-17.94 54,-17.94"
             id="path226"
             style="fill:none;stroke:#000000;stroke-width:2;stroke-linecap:square;stroke-linejoin:miter;stroke-miterlimit:10;stroke-opacity:1;stroke-dasharray:none" /><text
             transform="matrix(1,0,0,-1,511,221)"
             id="text228"><tspan
               x="0 7.7839999"
               y="0"
               id="tspan230"
               style="font-size:14px;font-variant:normal;font-weight:bold;writing-mode:lr-tb;fill:#000000;fill-opacity:1;fill-rule:nonzero;stroke:none;font-family:Helvetica;-inkscape-font-specification:Helvetica-Bold">JT</tspan></text>
<text
             transform="matrix(1,0,0,-1,565,238)"
             id="text232"><tspan
               x="0"
               y="0"
               id="tspan234"
               style="font-size:14px;font-variant:normal;font-weight:bold;writing-mode:lr-tb;fill:#000000;fill-opacity:1;fill-rule:nonzero;stroke:none;font-family:Helvetica;-inkscape-font-specification:Helvetica-Bold">J</tspan></text>
<text
             transform="matrix(1,0,0,-1,565,203)"
             id="text236"><tspan
               x="0"
               y="0"
               id="tspan238"
               style="font-size:14px;font-variant:normal;font-weight:bold;writing-mode:lr-tb;fill:#000000;fill-opacity:1;fill-rule:nonzero;stroke:none;font-family:Helvetica;-inkscape-font-specification:Helvetica-Bold">T</tspan></text>
<path
             d="m 506,171.41 c 0,0 0,0 54,0"
             id="path240"
             style="fill:none;stroke:#000000;stroke-width:2;stroke-linecap:square;stroke-linejoin:miter;stroke-miterlimit:10;stroke-opacity:1;stroke-dasharray:none" /><text
             transform="matrix(1,0,0,-1,511,157)"
             id="text242"><tspan
               x="0 10.108"
               y="0"
               id="tspan244"
               style="font-size:14px;font-variant:normal;font-weight:bold;writing-mode:lr-tb;fill:#000000;fill-opacity:1;fill-rule:nonzero;stroke:none;font-family:Helvetica;-inkscape-font-specification:Helvetica-Bold">R9</tspan></text>
<text
             transform="matrix(1,0,0,-1,565,167)"
             id="text246"><tspan
               x="0"
               y="0"
               id="tspan248"
               style="font-size:14px;font-variant:normal;font-weight:bold;writing-mode:lr-tb;fill:#000000;fill-opacity:1;fill-rule:nonzero;stroke:none;font-family:Helvetica;-inkscape-font-specification:Helvetica-Bold">F</tspan></text>
<path
             d="m 398,81.74 c 0,0 0,53.8 162,53.8"
             id="path250"
             style="fill:none;stroke:#000000;stroke-width:2;stroke-linecap:square;stroke-linejoin:miter;stroke-miterlimit:10;stroke-opacity:1;stroke-dasharray:none" /><path
             d="m 398,81.74 c 0,0 0,-17.94 54,-17.94"
             id="path252"
             style="fill:none;stroke:#000000;stroke-width:2;stroke-linecap:square;stroke-linejoin:miter;stroke-miterlimit:10;stroke-opacity:1;stroke-dasharray:none" /><text
             transform="matrix(1,0,0,-1,403,77)"
             id="text254"><tspan
               x="0"
               y="0"
               id="tspan256"
               style="font-size:14px;font-variant:normal;font-weight:bold;writing-mode:lr-tb;fill:#000000;fill-opacity:1;fill-rule:nonzero;stroke:none;font-family:Helvetica;-inkscape-font-specification:Helvetica-Bold">U</tspan></text>
<text
             transform="matrix(1,0,0,-1,565,131)"
             id="text258"><tspan
               x="0 10.374"
               y="0"
               id="tspan260"
               style="font-size:14px;font-variant:normal;font-weight:bold;writing-mode:lr-tb;fill:#000000;fill-opacity:1;fill-rule:nonzero;stroke:none;font-family:Helvetica;-inkscape-font-specification:Helvetica-Bold">U5</tspan></text>
<path
             d="m 452,63.8 c 0,0 0,35.87 108,35.87"
             id="path262"
             style="fill:none;stroke:#000000;stroke-width:2;stroke-linecap:square;stroke-linejoin:miter;stroke-miterlimit:10;stroke-opacity:1;stroke-dasharray:none" /><path
             d="m 452,63.8 c 0,0 0,0 54,0"
             id="path264"
             style="fill:none;stroke:#000000;stroke-width:2;stroke-linecap:square;stroke-linejoin:miter;stroke-miterlimit:10;stroke-opacity:1;stroke-dasharray:none" /><path
             d="m 452,63.8 c 0,0 0,-35.87 54,-35.87"
             id="path266"
             style="fill:none;stroke:#000000;stroke-width:2;stroke-linecap:square;stroke-linejoin:miter;stroke-miterlimit:10;stroke-opacity:1;stroke-dasharray:none" /><text
             transform="matrix(1,0,0,-1,457,59)"
             id="text268"><tspan
               x="0 10.542 18.76 23.856001"
               y="0"
               id="tspan270"
               style="font-size:14px;font-variant:normal;font-weight:bold;writing-mode:lr-tb;fill:#000000;fill-opacity:1;fill-rule:nonzero;stroke:none;font-family:Helvetica;-inkscape-font-specification:Helvetica-Bold">U2-9</tspan></text>
<text
             transform="matrix(1,0,0,-1,565,95)"
             id="text272"><tspan
               x="0 10.374"
               y="0"
               id="tspan274"
               style="font-size:14px;font-variant:normal;font-weight:bold;writing-mode:lr-tb;fill:#000000;fill-opacity:1;fill-rule:nonzero;stroke:none;font-family:Helvetica;-inkscape-font-specification:Helvetica-Bold">U2</tspan></text>
<path
             d="m 506,63.8 c 0,0 0,0 54,0"
             id="path276"
             style="fill:none;stroke:#000000;stroke-width:2;stroke-linecap:square;stroke-linejoin:miter;stroke-miterlimit:10;stroke-opacity:1;stroke-dasharray:none" /><text
             transform="matrix(1,0,0,-1,511,50)"
             id="text278"><tspan
               x="0 10.38333 18.442659 22.04999"
               y="0"
               id="tspan280"
               style="font-size:14px;font-variant:normal;font-weight:bold;writing-mode:lr-tb;fill:#000000;fill-opacity:1;fill-rule:nonzero;stroke:none;font-family:Helvetica;-inkscape-font-specification:Helvetica-Bold">U4'9</tspan></text>
<text
             transform="matrix(1,0,0,-1,565,59)"
             id="text282"><tspan
               x="0 10.374"
               y="0"
               id="tspan284"
               style="font-size:14px;font-variant:normal;font-weight:bold;writing-mode:lr-tb;fill:#000000;fill-opacity:1;fill-rule:nonzero;stroke:none;font-family:Helvetica;-inkscape-font-specification:Helvetica-Bold">U4</tspan></text>
<path
             d="m 506,27.93 c 0,0 0,0 54,0"
             id="path286"
             style="fill:none;stroke:#000000;stroke-width:2;stroke-linecap:square;stroke-linejoin:miter;stroke-miterlimit:10;stroke-opacity:1;stroke-dasharray:none" /><text
             transform="matrix(1,0,0,-1,511,14)"
             id="text288"><tspan
               x="0 10.374"
               y="0"
               id="tspan290"
               style="font-size:14px;font-variant:normal;font-weight:bold;writing-mode:lr-tb;fill:#000000;fill-opacity:1;fill-rule:nonzero;stroke:none;font-family:Helvetica;-inkscape-font-specification:Helvetica-Bold">U8</tspan></text>
<text
             transform="matrix(1,0,0,-1,565,23)"
             id="text292"><tspan
               x="0"
               y="0"
               id="tspan294"
               style="font-size:14px;font-variant:normal;font-weight:bold;writing-mode:lr-tb;fill:#000000;fill-opacity:1;fill-rule:nonzero;stroke:none;font-family:Helvetica;-inkscape-font-specification:Helvetica-Bold">K</tspan></text>
</g></g></g></g></svg>