<?xml version="1.0" encoding="UTF-8" standalone="no"?>
<!-- Created with Inkscape (http://www.inkscape.org/) -->

<svg
   xmlns:svg="http://www.w3.org/2000/svg"
   xmlns="http://www.w3.org/2000/svg"
   version="1.2"
   width="743.75"
   height="1056.25"
   id="svg3411"
   xml:space="preserve"><defs
     id="defs3415"><clipPath
       id="clipPath3429"><path
         d="M 0,845 0,0 595,0 595,845 0,845 z"
         id="path3431" /></clipPath></defs><g
     transform="matrix(1.25,0,0,-1.25,0,1056.25)"
     id="g3421"><g
       id="g3423" /><g
       id="g3425"><g
         clip-path="url(#clipPath3429)"
         id="g3427"><g
           id="g3433"><path
             d="m 20,422.5 54,0"
             id="path3435"
             style="fill:none;stroke:#000000;stroke-width:2;stroke-linecap:square;stroke-linejoin:miter;stroke-miterlimit:10;stroke-opacity:1;stroke-dasharray:none" /><path
             d="m 74,422.5 c 0,0 0,394.57 486,394.57"
             id="path3437"
             style="fill:none;stroke:#000000;stroke-width:2;stroke-linecap:square;stroke-linejoin:miter;stroke-miterlimit:10;stroke-opacity:1;stroke-dasharray:none" /><path
             d="m 74,422.5 c 0,0 0,-17.93 54,-17.93"
             id="path3439"
             style="fill:none;stroke:#000000;stroke-width:2;stroke-linecap:square;stroke-linejoin:miter;stroke-miterlimit:10;stroke-opacity:1;stroke-dasharray:none" /><text
             transform="matrix(1,0,0,-1,79,418)"
             id="text3441"><tspan
               x="0 5.5346699 14.17734 22.820009"
               y="0"
               id="tspan3443"
               style="font-size:14px;font-variant:normal;font-weight:bold;writing-mode:lr-tb;fill:#000000;fill-opacity:1;fill-rule:nonzero;stroke:none;font-family:Helvetica;-inkscape-font-specification:Helvetica-Bold">root</tspan></text>
<text
             transform="matrix(1,0,0,-1,565,812)"
             id="text3445"><tspan
               x="0 8.302"
               y="0"
               id="tspan3447"
               style="font-size:14px;font-variant:normal;font-weight:bold;writing-mode:lr-tb;fill:#000000;fill-opacity:1;fill-rule:nonzero;stroke:none;font-family:Helvetica;-inkscape-font-specification:Helvetica-Bold">L0</tspan></text>
<path
             d="m 128,404.57 c 0,0 0,376.63 432,376.63"
             id="path3449"
             style="fill:none;stroke:#000000;stroke-width:2;stroke-linecap:square;stroke-linejoin:miter;stroke-miterlimit:10;stroke-opacity:1;stroke-dasharray:none" /><path
             d="m 128,404.57 c 0,0 0,-17.94 54,-17.94"
             id="path3451"
             style="fill:none;stroke:#000000;stroke-width:2;stroke-linecap:square;stroke-linejoin:miter;stroke-miterlimit:10;stroke-opacity:1;stroke-dasharray:none" /><text
             transform="matrix(1,0,0,-1,133,400)"
             id="text3453"><tspan
               x="0 8.8153296 16.860661 21.783991"
               y="0"
               id="tspan3455"
               style="font-size:14px;font-variant:normal;font-weight:bold;writing-mode:lr-tb;fill:#000000;fill-opacity:1;fill-rule:nonzero;stroke:none;font-family:Helvetica;-inkscape-font-specification:Helvetica-Bold">L1-6</tspan></text>
<text
             transform="matrix(1,0,0,-1,565,777)"
             id="text3457"><tspan
               x="0 8.302"
               y="0"
               id="tspan3459"
               style="font-size:14px;font-variant:normal;font-weight:bold;writing-mode:lr-tb;fill:#000000;fill-opacity:1;fill-rule:nonzero;stroke:none;font-family:Helvetica;-inkscape-font-specification:Helvetica-Bold">L1</tspan></text>
<path
             d="m 182,386.63 c 0,0 0,358.7 378,358.7"
             id="path3461"
             style="fill:none;stroke:#000000;stroke-width:2;stroke-linecap:square;stroke-linejoin:miter;stroke-miterlimit:10;stroke-opacity:1;stroke-dasharray:none" /><path
             d="m 182,386.63 c 0,0 0,-17.93 54,-17.93"
             id="path3463"
             style="fill:none;stroke:#000000;stroke-width:2;stroke-linecap:square;stroke-linejoin:miter;stroke-miterlimit:10;stroke-opacity:1;stroke-dasharray:none" /><text
             transform="matrix(1,0,0,-1,187,382)"
             id="text3465"><tspan
               x="0 8.8153296 16.860661 21.783991"
               y="0"
               id="tspan3467"
               style="font-size:14px;font-variant:normal;font-weight:bold;writing-mode:lr-tb;fill:#000000;fill-opacity:1;fill-rule:nonzero;stroke:none;font-family:Helvetica;-inkscape-font-specification:Helvetica-Bold">L2-6</tspan></text>
<text
             transform="matrix(1,0,0,-1,565,741)"
             id="text3469"><tspan
               x="0 8.302"
               y="0"
               id="tspan3471"
               style="font-size:14px;font-variant:normal;font-weight:bold;writing-mode:lr-tb;fill:#000000;fill-opacity:1;fill-rule:nonzero;stroke:none;font-family:Helvetica;-inkscape-font-specification:Helvetica-Bold">L5</tspan></text>
<path
             d="m 236,368.7 c 0,0 0,251.08 216,251.08"
             id="path3473"
             style="fill:none;stroke:#000000;stroke-width:2;stroke-linecap:square;stroke-linejoin:miter;stroke-miterlimit:10;stroke-opacity:1;stroke-dasharray:none" /><path
             d="m 236,368.7 c 0,0 0,-107.61 54,-107.61"
             id="path3475"
             style="fill:none;stroke:#000000;stroke-width:2;stroke-linecap:square;stroke-linejoin:miter;stroke-miterlimit:10;stroke-opacity:1;stroke-dasharray:none" /><text
             transform="matrix(1,0,0,-1,241,364)"
             id="text3477"><tspan
               x="0 8.302"
               y="0"
               id="tspan3479"
               style="font-size:14px;font-variant:normal;font-weight:bold;writing-mode:lr-tb;fill:#000000;fill-opacity:1;fill-rule:nonzero;stroke:none;font-family:Helvetica;-inkscape-font-specification:Helvetica-Bold">L3</tspan></text>
<path
             d="m 452,619.78 c 0,0 0,89.68 108,89.68"
             id="path3481"
             style="fill:none;stroke:#000000;stroke-width:2;stroke-linecap:square;stroke-linejoin:miter;stroke-miterlimit:10;stroke-opacity:1;stroke-dasharray:none" /><path
             d="m 452,619.78 c 0,0 0,53.81 108,53.81"
             id="path3483"
             style="fill:none;stroke:#000000;stroke-width:2;stroke-linecap:square;stroke-linejoin:miter;stroke-miterlimit:10;stroke-opacity:1;stroke-dasharray:none" /><path
             d="m 452,619.78 c 0,0 0,17.94 54,17.94"
             id="path3485"
             style="fill:none;stroke:#000000;stroke-width:2;stroke-linecap:square;stroke-linejoin:miter;stroke-miterlimit:10;stroke-opacity:1;stroke-dasharray:none" /><path
             d="m 452,619.78 c 0,0 0,-17.93 54,-17.93"
             id="path3487"
             style="fill:none;stroke:#000000;stroke-width:2;stroke-linecap:square;stroke-linejoin:miter;stroke-miterlimit:10;stroke-opacity:1;stroke-dasharray:none" /><path
             d="m 452,619.78 c 0,0 0,-53.8 54,-53.8"
             id="path3489"
             style="fill:none;stroke:#000000;stroke-width:2;stroke-linecap:square;stroke-linejoin:miter;stroke-miterlimit:10;stroke-opacity:1;stroke-dasharray:none" /><path
             d="m 452,619.78 c 0,0 0,-89.67 54,-89.67"
             id="path3491"
             style="fill:none;stroke:#000000;stroke-width:2;stroke-linecap:square;stroke-linejoin:miter;stroke-miterlimit:10;stroke-opacity:1;stroke-dasharray:none" /><text
             transform="matrix(1,0,0,-1,457,615)"
             id="text3493"><tspan
               x="0"
               y="0"
               id="tspan3495"
               style="font-size:14px;font-variant:normal;font-weight:bold;writing-mode:lr-tb;fill:#000000;fill-opacity:1;fill-rule:nonzero;stroke:none;font-family:Helvetica;-inkscape-font-specification:Helvetica-Bold">M</tspan></text>
<text
             transform="matrix(1,0,0,-1,565,705)"
             id="text3497"><tspan
               x="0 12.702"
               y="0"
               id="tspan3499"
               style="font-size:14px;font-variant:normal;font-weight:bold;writing-mode:lr-tb;fill:#000000;fill-opacity:1;fill-rule:nonzero;stroke:none;font-family:Helvetica;-inkscape-font-specification:Helvetica-Bold">M2</tspan></text>
<text
             transform="matrix(1,0,0,-1,565,669)"
             id="text3501"><tspan
               x="0 12.702"
               y="0"
               id="tspan3503"
               style="font-size:14px;font-variant:normal;font-weight:bold;writing-mode:lr-tb;fill:#000000;fill-opacity:1;fill-rule:nonzero;stroke:none;font-family:Helvetica;-inkscape-font-specification:Helvetica-Bold">M3</tspan></text>
<path
             d="m 506,637.72 c 0,0 0,0 54,0"
             id="path3505"
             style="fill:none;stroke:#000000;stroke-width:2;stroke-linecap:square;stroke-linejoin:miter;stroke-miterlimit:10;stroke-opacity:1;stroke-dasharray:none" /><text
             transform="matrix(1,0,0,-1,511,624)"
             id="text3507"><tspan
               x="0 12.702"
               y="0"
               id="tspan3509"
               style="font-size:14px;font-variant:normal;font-weight:bold;writing-mode:lr-tb;fill:#000000;fill-opacity:1;fill-rule:nonzero;stroke:none;font-family:Helvetica;-inkscape-font-specification:Helvetica-Bold">M8</tspan></text>
<text
             transform="matrix(1,0,0,-1,565,633)"
             id="text3511"><tspan
               x="0"
               y="0"
               id="tspan3513"
               style="font-size:14px;font-variant:normal;font-weight:bold;writing-mode:lr-tb;fill:#000000;fill-opacity:1;fill-rule:nonzero;stroke:none;font-family:Helvetica;-inkscape-font-specification:Helvetica-Bold">C</tspan></text>
<path
             d="m 506,601.85 c 0,0 0,0 54,0"
             id="path3515"
             style="fill:none;stroke:#000000;stroke-width:2;stroke-linecap:square;stroke-linejoin:miter;stroke-miterlimit:10;stroke-opacity:1;stroke-dasharray:none" /><text
             transform="matrix(1,0,0,-1,511,588)"
             id="text3517"><tspan
               x="0 12.702"
               y="0"
               id="tspan3519"
               style="font-size:14px;font-variant:normal;font-weight:bold;writing-mode:lr-tb;fill:#000000;fill-opacity:1;fill-rule:nonzero;stroke:none;font-family:Helvetica;-inkscape-font-specification:Helvetica-Bold">M9</tspan></text>
<text
             transform="matrix(1,0,0,-1,565,597)"
             id="text3521"><tspan
               x="0"
               y="0"
               id="tspan3523"
               style="font-size:14px;font-variant:normal;font-weight:bold;writing-mode:lr-tb;fill:#000000;fill-opacity:1;fill-rule:nonzero;stroke:none;font-family:Helvetica;-inkscape-font-specification:Helvetica-Bold">E</tspan></text>
<path
             d="m 506,565.98 c 0,0 0,0 54,0"
             id="path3525"
             style="fill:none;stroke:#000000;stroke-width:2;stroke-linecap:square;stroke-linejoin:miter;stroke-miterlimit:10;stroke-opacity:1;stroke-dasharray:none" /><text
             transform="matrix(1,0,0,-1,511,552)"
             id="text3527"><tspan
               x="0 12.18 20.482"
               y="0"
               id="tspan3529"
               style="font-size:14px;font-variant:normal;font-weight:bold;writing-mode:lr-tb;fill:#000000;fill-opacity:1;fill-rule:nonzero;stroke:none;font-family:Helvetica;-inkscape-font-specification:Helvetica-Bold">M12</tspan></text>
<text
             transform="matrix(1,0,0,-1,565,561)"
             id="text3531"><tspan
               x="0"
               y="0"
               id="tspan3533"
               style="font-size:14px;font-variant:normal;font-weight:bold;writing-mode:lr-tb;fill:#000000;fill-opacity:1;fill-rule:nonzero;stroke:none;font-family:Helvetica;-inkscape-font-specification:Helvetica-Bold">G</tspan></text>
<path
             d="m 506,530.11 c 0,0 0,0 54,0"
             id="path3535"
             style="fill:none;stroke:#000000;stroke-width:2;stroke-linecap:square;stroke-linejoin:miter;stroke-miterlimit:10;stroke-opacity:1;stroke-dasharray:none" /><text
             transform="matrix(1,0,0,-1,511,516)"
             id="text3537"><tspan
               x="0 12.1275 20.377001 28.626499 32.424"
               y="0"
               id="tspan3539"
               style="font-size:14px;font-variant:normal;font-weight:bold;writing-mode:lr-tb;fill:#000000;fill-opacity:1;fill-rule:nonzero;stroke:none;font-family:Helvetica;-inkscape-font-specification:Helvetica-Bold">M80'D</tspan></text>
<text
             transform="matrix(1,0,0,-1,565,525)"
             id="text3541"><tspan
               x="0"
               y="0"
               id="tspan3543"
               style="font-size:14px;font-variant:normal;font-weight:bold;writing-mode:lr-tb;fill:#000000;fill-opacity:1;fill-rule:nonzero;stroke:none;font-family:Helvetica;-inkscape-font-specification:Helvetica-Bold">D</tspan></text>
<path
             d="m 290,261.09 c 0,0 0,233.15 216,233.15"
             id="path3545"
             style="fill:none;stroke:#000000;stroke-width:2;stroke-linecap:square;stroke-linejoin:miter;stroke-miterlimit:10;stroke-opacity:1;stroke-dasharray:none" /><path
             d="m 290,261.09 c 0,0 0,197.28 216,197.28"
             id="path3547"
             style="fill:none;stroke:#000000;stroke-width:2;stroke-linecap:square;stroke-linejoin:miter;stroke-miterlimit:10;stroke-opacity:1;stroke-dasharray:none" /><path
             d="m 290,261.09 c 0,0 0,161.41 270,161.41"
             id="path3549"
             style="fill:none;stroke:#000000;stroke-width:2;stroke-linecap:square;stroke-linejoin:miter;stroke-miterlimit:10;stroke-opacity:1;stroke-dasharray:none" /><path
             d="m 290,261.09 c 0,0 0,125.54 270,125.54"
             id="path3551"
             style="fill:none;stroke:#000000;stroke-width:2;stroke-linecap:square;stroke-linejoin:miter;stroke-miterlimit:10;stroke-opacity:1;stroke-dasharray:none" /><path
             d="m 290,261.09 c 0,0 0,89.67 270,89.67"
             id="path3553"
             style="fill:none;stroke:#000000;stroke-width:2;stroke-linecap:square;stroke-linejoin:miter;stroke-miterlimit:10;stroke-opacity:1;stroke-dasharray:none" /><path
             d="m 290,261.09 c 0,0 0,-89.68 54,-89.68"
             id="path3555"
             style="fill:none;stroke:#000000;stroke-width:2;stroke-linecap:square;stroke-linejoin:miter;stroke-miterlimit:10;stroke-opacity:1;stroke-dasharray:none" /><text
             transform="matrix(1,0,0,-1,295,256)"
             id="text3557"><tspan
               x="0"
               y="0"
               id="tspan3559"
               style="font-size:14px;font-variant:normal;font-weight:bold;writing-mode:lr-tb;fill:#000000;fill-opacity:1;fill-rule:nonzero;stroke:none;font-family:Helvetica;-inkscape-font-specification:Helvetica-Bold">N</tspan></text>
<path
             d="m 506,494.24 c 0,0 0,0 54,0"
             id="path3561"
             style="fill:none;stroke:#000000;stroke-width:2;stroke-linecap:square;stroke-linejoin:miter;stroke-miterlimit:10;stroke-opacity:1;stroke-dasharray:none" /><text
             transform="matrix(1,0,0,-1,511,480)"
             id="text3563"><tspan
               x="0 10.374"
               y="0"
               id="tspan3565"
               style="font-size:14px;font-variant:normal;font-weight:bold;writing-mode:lr-tb;fill:#000000;fill-opacity:1;fill-rule:nonzero;stroke:none;font-family:Helvetica;-inkscape-font-specification:Helvetica-Bold">N1</tspan></text>
<text
             transform="matrix(1,0,0,-1,565,490)"
             id="text3567"><tspan
               x="0"
               y="0"
               id="tspan3569"
               style="font-size:14px;font-variant:normal;font-weight:bold;writing-mode:lr-tb;fill:#000000;fill-opacity:1;fill-rule:nonzero;stroke:none;font-family:Helvetica;-inkscape-font-specification:Helvetica-Bold">I</tspan></text>
<path
             d="m 506,458.37 c 0,0 0,0 54,0"
             id="path3571"
             style="fill:none;stroke:#000000;stroke-width:2;stroke-linecap:square;stroke-linejoin:miter;stroke-miterlimit:10;stroke-opacity:1;stroke-dasharray:none" /><text
             transform="matrix(1,0,0,-1,511,444)"
             id="text3573"><tspan
               x="0 10.374"
               y="0"
               id="tspan3575"
               style="font-size:14px;font-variant:normal;font-weight:bold;writing-mode:lr-tb;fill:#000000;fill-opacity:1;fill-rule:nonzero;stroke:none;font-family:Helvetica;-inkscape-font-specification:Helvetica-Bold">N2</tspan></text>
<text
             transform="matrix(1,0,0,-1,565,454)"
             id="text3577"><tspan
               x="0"
               y="0"
               id="tspan3579"
               style="font-size:14px;font-variant:normal;font-weight:bold;writing-mode:lr-tb;fill:#000000;fill-opacity:1;fill-rule:nonzero;stroke:none;font-family:Helvetica;-inkscape-font-specification:Helvetica-Bold">W</tspan></text>
<text
             transform="matrix(1,0,0,-1,565,418)"
             id="text3581"><tspan
               x="0 10.374"
               y="0"
               id="tspan3583"
               style="font-size:14px;font-variant:normal;font-weight:bold;writing-mode:lr-tb;fill:#000000;fill-opacity:1;fill-rule:nonzero;stroke:none;font-family:Helvetica;-inkscape-font-specification:Helvetica-Bold">N8</tspan></text>
<text
             transform="matrix(1,0,0,-1,565,382)"
             id="text3585"><tspan
               x="0"
               y="0"
               id="tspan3587"
               style="font-size:14px;font-variant:normal;font-weight:bold;writing-mode:lr-tb;fill:#000000;fill-opacity:1;fill-rule:nonzero;stroke:none;font-family:Helvetica;-inkscape-font-specification:Helvetica-Bold">A</tspan></text>
<text
             transform="matrix(1,0,0,-1,565,346)"
             id="text3589"><tspan
               x="0"
               y="0"
               id="tspan3591"
               style="font-size:14px;font-variant:normal;font-weight:bold;writing-mode:lr-tb;fill:#000000;fill-opacity:1;fill-rule:nonzero;stroke:none;font-family:Helvetica;-inkscape-font-specification:Helvetica-Bold">X</tspan></text>
<path
             d="m 344,171.41 c 0,0 0,125.55 108,125.55"
             id="path3593"
             style="fill:none;stroke:#000000;stroke-width:2;stroke-linecap:square;stroke-linejoin:miter;stroke-miterlimit:10;stroke-opacity:1;stroke-dasharray:none" /><path
             d="m 344,171.41 c 0,0 0,53.81 108,53.81"
             id="path3595"
             style="fill:none;stroke:#000000;stroke-width:2;stroke-linecap:square;stroke-linejoin:miter;stroke-miterlimit:10;stroke-opacity:1;stroke-dasharray:none" /><path
             d="m 344,171.41 c 0,0 0,0 162,0"
             id="path3597"
             style="fill:none;stroke:#000000;stroke-width:2;stroke-linecap:square;stroke-linejoin:miter;stroke-miterlimit:10;stroke-opacity:1;stroke-dasharray:none" /><path
             d="m 344,171.41 c 0,0 0,-89.67 54,-89.67"
             id="path3599"
             style="fill:none;stroke:#000000;stroke-width:2;stroke-linecap:square;stroke-linejoin:miter;stroke-miterlimit:10;stroke-opacity:1;stroke-dasharray:none" /><text
             transform="matrix(1,0,0,-1,349,167)"
             id="text3601"><tspan
               x="0"
               y="0"
               id="tspan3603"
               style="font-size:14px;font-variant:normal;font-weight:bold;writing-mode:lr-tb;fill:#000000;fill-opacity:1;fill-rule:nonzero;stroke:none;font-family:Helvetica;-inkscape-font-specification:Helvetica-Bold">R</tspan></text>
<path
             d="m 452,296.96 c 0,0 0,0 54,0"
             id="path3605"
             style="fill:none;stroke:#000000;stroke-width:2;stroke-linecap:square;stroke-linejoin:miter;stroke-miterlimit:10;stroke-opacity:1;stroke-dasharray:none" /><text
             transform="matrix(1,0,0,-1,457,283)"
             id="text3607"><tspan
               x="0 10.108"
               y="0"
               id="tspan3609"
               style="font-size:14px;font-variant:normal;font-weight:bold;writing-mode:lr-tb;fill:#000000;fill-opacity:1;fill-rule:nonzero;stroke:none;font-family:Helvetica;-inkscape-font-specification:Helvetica-Bold">R0</tspan></text>
<path
             d="m 506,296.96 c 0,0 0,17.93 54,17.93"
             id="path3611"
             style="fill:none;stroke:#000000;stroke-width:2;stroke-linecap:square;stroke-linejoin:miter;stroke-miterlimit:10;stroke-opacity:1;stroke-dasharray:none" /><path
             d="m 506,296.96 c 0,0 0,-17.94 54,-17.94"
             id="path3613"
             style="fill:none;stroke:#000000;stroke-width:2;stroke-linecap:square;stroke-linejoin:miter;stroke-miterlimit:10;stroke-opacity:1;stroke-dasharray:none" /><text
             transform="matrix(1,0,0,-1,511,292)"
             id="text3615"><tspan
               x="0 9.8559999"
               y="0"
               id="tspan3617"
               style="font-size:14px;font-variant:normal;font-weight:bold;writing-mode:lr-tb;fill:#000000;fill-opacity:1;fill-rule:nonzero;stroke:none;font-family:Helvetica;-inkscape-font-specification:Helvetica-Bold">HV</tspan></text>
<text
             transform="matrix(1,0,0,-1,565,310)"
             id="text3619"><tspan
               x="0"
               y="0"
               id="tspan3621"
               style="font-size:14px;font-variant:normal;font-weight:bold;writing-mode:lr-tb;fill:#000000;fill-opacity:1;fill-rule:nonzero;stroke:none;font-family:Helvetica;-inkscape-font-specification:Helvetica-Bold">V</tspan></text>
<text
             transform="matrix(1,0,0,-1,565,274)"
             id="text3623"><tspan
               x="0"
               y="0"
               id="tspan3625"
               style="font-size:14px;font-variant:normal;font-weight:bold;writing-mode:lr-tb;fill:#000000;fill-opacity:1;fill-rule:nonzero;stroke:none;font-family:Helvetica;-inkscape-font-specification:Helvetica-Bold">H</tspan></text>
<path
             d="m 452,225.22 c 0,0 0,0 54,0"
             id="path3627"
             style="fill:none;stroke:#000000;stroke-width:2;stroke-linecap:square;stroke-linejoin:miter;stroke-miterlimit:10;stroke-opacity:1;stroke-dasharray:none" /><text
             transform="matrix(1,0,0,-1,457,211)"
             id="text3629"><tspan
               x="0 10.108"
               y="0"
               id="tspan3631"
               style="font-size:14px;font-variant:normal;font-weight:bold;writing-mode:lr-tb;fill:#000000;fill-opacity:1;fill-rule:nonzero;stroke:none;font-family:Helvetica;-inkscape-font-specification:Helvetica-Bold">R2</tspan></text>
<path
             d="m 506,225.22 c 0,0 0,17.93 54,17.93"
             id="path3633"
             style="fill:none;stroke:#000000;stroke-width:2;stroke-linecap:square;stroke-linejoin:miter;stroke-miterlimit:10;stroke-opacity:1;stroke-dasharray:none" /><path
             d="m 506,225.22 c 0,0 0,-17.94 54,-17.94"
             id="path3635"
             style="fill:none;stroke:#000000;stroke-width:2;stroke-linecap:square;stroke-linejoin:miter;stroke-miterlimit:10;stroke-opacity:1;stroke-dasharray:none" /><text
             transform="matrix(1,0,0,-1,511,221)"
             id="text3637"><tspan
               x="0 7.7839999"
               y="0"
               id="tspan3639"
               style="font-size:14px;font-variant:normal;font-weight:bold;writing-mode:lr-tb;fill:#000000;fill-opacity:1;fill-rule:nonzero;stroke:none;font-family:Helvetica;-inkscape-font-specification:Helvetica-Bold">JT</tspan></text>
<text
             transform="matrix(1,0,0,-1,565,238)"
             id="text3641"><tspan
               x="0"
               y="0"
               id="tspan3643"
               style="font-size:14px;font-variant:normal;font-weight:bold;writing-mode:lr-tb;fill:#000000;fill-opacity:1;fill-rule:nonzero;stroke:none;font-family:Helvetica;-inkscape-font-specification:Helvetica-Bold">J</tspan></text>
<text
             transform="matrix(1,0,0,-1,565,203)"
             id="text3645"><tspan
               x="0"
               y="0"
               id="tspan3647"
               style="font-size:14px;font-variant:normal;font-weight:bold;writing-mode:lr-tb;fill:#000000;fill-opacity:1;fill-rule:nonzero;stroke:none;font-family:Helvetica;-inkscape-font-specification:Helvetica-Bold">T</tspan></text>
<path
             d="m 506,171.41 c 0,0 0,0 54,0"
             id="path3649"
             style="fill:none;stroke:#000000;stroke-width:2;stroke-linecap:square;stroke-linejoin:miter;stroke-miterlimit:10;stroke-opacity:1;stroke-dasharray:none" /><text
             transform="matrix(1,0,0,-1,511,157)"
             id="text3651"><tspan
               x="0 10.108"
               y="0"
               id="tspan3653"
               style="font-size:14px;font-variant:normal;font-weight:bold;writing-mode:lr-tb;fill:#000000;fill-opacity:1;fill-rule:nonzero;stroke:none;font-family:Helvetica;-inkscape-font-specification:Helvetica-Bold">R9</tspan></text>
<text
             transform="matrix(1,0,0,-1,565,167)"
             id="text3655"><tspan
               x="0"
               y="0"
               id="tspan3657"
               style="font-size:14px;font-variant:normal;font-weight:bold;writing-mode:lr-tb;fill:#000000;fill-opacity:1;fill-rule:nonzero;stroke:none;font-family:Helvetica;-inkscape-font-specification:Helvetica-Bold">F</tspan></text>
<path
             d="m 398,81.74 c 0,0 0,53.8 162,53.8"
             id="path3659"
             style="fill:none;stroke:#000000;stroke-width:2;stroke-linecap:square;stroke-linejoin:miter;stroke-miterlimit:10;stroke-opacity:1;stroke-dasharray:none" /><path
             d="m 398,81.74 c 0,0 0,-17.94 54,-17.94"
             id="path3661"
             style="fill:none;stroke:#000000;stroke-width:2;stroke-linecap:square;stroke-linejoin:miter;stroke-miterlimit:10;stroke-opacity:1;stroke-dasharray:none" /><text
             transform="matrix(1,0,0,-1,403,77)"
             id="text3663"><tspan
               x="0"
               y="0"
               id="tspan3665"
               style="font-size:14px;font-variant:normal;font-weight:bold;writing-mode:lr-tb;fill:#000000;fill-opacity:1;fill-rule:nonzero;stroke:none;font-family:Helvetica;-inkscape-font-specification:Helvetica-Bold">U</tspan></text>
<text
             transform="matrix(1,0,0,-1,565,131)"
             id="text3667"><tspan
               x="0 10.374"
               y="0"
               id="tspan3669"
               style="font-size:14px;font-variant:normal;font-weight:bold;writing-mode:lr-tb;fill:#000000;fill-opacity:1;fill-rule:nonzero;stroke:none;font-family:Helvetica;-inkscape-font-specification:Helvetica-Bold">U5</tspan></text>
<path
             d="m 452,63.8 c 0,0 0,35.87 108,35.87"
             id="path3671"
             style="fill:none;stroke:#000000;stroke-width:2;stroke-linecap:square;stroke-linejoin:miter;stroke-miterlimit:10;stroke-opacity:1;stroke-dasharray:none" /><path
             d="m 452,63.8 c 0,0 0,0 54,0"
             id="path3673"
             style="fill:none;stroke:#000000;stroke-width:2;stroke-linecap:square;stroke-linejoin:miter;stroke-miterlimit:10;stroke-opacity:1;stroke-dasharray:none" /><path
             d="m 452,63.8 c 0,0 0,-35.87 54,-35.87"
             id="path3675"
             style="fill:none;stroke:#000000;stroke-width:2;stroke-linecap:square;stroke-linejoin:miter;stroke-miterlimit:10;stroke-opacity:1;stroke-dasharray:none" /><text
             transform="matrix(1,0,0,-1,457,59)"
             id="text3677"><tspan
               x="0 10.542 18.76 23.856001"
               y="0"
               id="tspan3679"
               style="font-size:14px;font-variant:normal;font-weight:bold;writing-mode:lr-tb;fill:#000000;fill-opacity:1;fill-rule:nonzero;stroke:none;font-family:Helvetica;-inkscape-font-specification:Helvetica-Bold">U2-9</tspan></text>
<text
             transform="matrix(1,0,0,-1,565,95)"
             id="text3681"><tspan
               x="0 10.374"
               y="0"
               id="tspan3683"
               style="font-size:14px;font-variant:normal;font-weight:bold;writing-mode:lr-tb;fill:#000000;fill-opacity:1;fill-rule:nonzero;stroke:none;font-family:Helvetica;-inkscape-font-specification:Helvetica-Bold">U2</tspan></text>
<path
             d="m 506,63.8 c 0,0 0,0 54,0"
             id="path3685"
             style="fill:none;stroke:#000000;stroke-width:2;stroke-linecap:square;stroke-linejoin:miter;stroke-miterlimit:10;stroke-opacity:1;stroke-dasharray:none" /><text
             transform="matrix(1,0,0,-1,511,50)"
             id="text3687"><tspan
               x="0 10.38333 18.442659 22.04999"
               y="0"
               id="tspan3689"
               style="font-size:14px;font-variant:normal;font-weight:bold;writing-mode:lr-tb;fill:#000000;fill-opacity:1;fill-rule:nonzero;stroke:none;font-family:Helvetica;-inkscape-font-specification:Helvetica-Bold">U4'9</tspan></text>
<text
             transform="matrix(1,0,0,-1,565,59)"
             id="text3691"><tspan
               x="0 10.374"
               y="0"
               id="tspan3693"
               style="font-size:14px;font-variant:normal;font-weight:bold;writing-mode:lr-tb;fill:#000000;fill-opacity:1;fill-rule:nonzero;stroke:none;font-family:Helvetica;-inkscape-font-specification:Helvetica-Bold">U4</tspan></text>
<path
             d="m 506,27.93 c 0,0 0,0 54,0"
             id="path3695"
             style="fill:none;stroke:#000000;stroke-width:2;stroke-linecap:square;stroke-linejoin:miter;stroke-miterlimit:10;stroke-opacity:1;stroke-dasharray:none" /><text
             transform="matrix(1,0,0,-1,511,14)"
             id="text3697"><tspan
               x="0 10.374"
               y="0"
               id="tspan3699"
               style="font-size:14px;font-variant:normal;font-weight:bold;writing-mode:lr-tb;fill:#000000;fill-opacity:1;fill-rule:nonzero;stroke:none;font-family:Helvetica;-inkscape-font-specification:Helvetica-Bold">U8</tspan></text>
<text
             transform="matrix(1,0,0,-1,565,23)"
             id="text3701"><tspan
               x="0"
               y="0"
               id="tspan3703"
               style="font-size:14px;font-variant:normal;font-weight:bold;writing-mode:lr-tb;fill:#000000;fill-opacity:1;fill-rule:nonzero;stroke:none;font-family:Helvetica;-inkscape-font-specification:Helvetica-Bold">K</tspan></text>
</g></g></g><flowRoot
       transform="matrix(0.8,0,0,-0.8,0,845)"
       id="flowRoot3705"
       xml:space="preserve"
       style="font-size:40px;font-style:normal;font-variant:normal;font-weight:normal;font-stretch:normal;fill:#000000;fill-opacity:1;stroke:none;font-family:Arial;-inkscape-font-specification:Arial"><flowRegion
         id="flowRegion3707"><rect
           width="657.91846"
           height="554.97882"
           x="107.41525"
           y="237.20868"
           id="rect3709" /></flowRegion><flowPara
         id="flowPara3711"
         style="font-size:300px;font-style:normal;font-variant:normal;font-weight:bold;font-stretch:normal;text-align:start;line-height:125%;writing-mode:lr-tb;text-anchor:start;font-family:Arial;-inkscape-font-specification:Arial Bold">???</flowPara></flowRoot></g></svg>